<mxfile host="app.diagrams.net" modified="2024-03-01T04:47:07.239Z" agent="Mozilla/5.0 (Windows NT 10.0; Win64; x64) AppleWebKit/537.36 (KHTML, like Gecko) Chrome/121.0.0.0 Safari/537.36 OPR/107.0.0.0 (Edition std-1)" etag="gF_GA5FT2mUjFDZnZMYq" version="24.0.0" type="github">
  <diagram name="Page-1" id="a7904f86-f2b4-8e86-fa97-74104820619b">
    <mxGraphModel dx="3422" dy="2113" grid="1" gridSize="10" guides="1" tooltips="1" connect="1" arrows="1" fold="1" page="1" pageScale="1" pageWidth="1100" pageHeight="850" background="none" math="0" shadow="0">
      <root>
        <mxCell id="0" />
        <mxCell id="1" parent="0" />
        <mxCell id="FBYkTZbu3xAGnKnDzRI2-3" style="edgeStyle=orthogonalEdgeStyle;rounded=0;orthogonalLoop=1;jettySize=auto;html=1;exitX=1;exitY=0.5;exitDx=0;exitDy=0;startArrow=ERone;startFill=0;endArrow=ERoneToMany;endFill=0;" edge="1" parent="1" source="24794b860abc3c2d-26" target="24794b860abc3c2d-29">
          <mxGeometry relative="1" as="geometry">
            <Array as="points">
              <mxPoint x="410" y="470" />
              <mxPoint x="410" y="470" />
            </Array>
          </mxGeometry>
        </mxCell>
        <mxCell id="FBYkTZbu3xAGnKnDzRI2-16" style="edgeStyle=orthogonalEdgeStyle;rounded=0;orthogonalLoop=1;jettySize=auto;html=1;exitX=0.5;exitY=0;exitDx=0;exitDy=0;endArrow=ERoneToMany;endFill=0;startArrow=ERone;startFill=0;" edge="1" parent="1" source="24794b860abc3c2d-26" target="FBYkTZbu3xAGnKnDzRI2-15">
          <mxGeometry relative="1" as="geometry" />
        </mxCell>
        <mxCell id="FBYkTZbu3xAGnKnDzRI2-27" style="edgeStyle=orthogonalEdgeStyle;rounded=0;orthogonalLoop=1;jettySize=auto;html=1;exitX=0.5;exitY=1;exitDx=0;exitDy=0;entryX=0.5;entryY=0;entryDx=0;entryDy=0;startArrow=ERone;startFill=0;endArrow=ERoneToMany;endFill=0;" edge="1" parent="1" source="24794b860abc3c2d-26" target="FBYkTZbu3xAGnKnDzRI2-25">
          <mxGeometry relative="1" as="geometry" />
        </mxCell>
        <mxCell id="24794b860abc3c2d-26" value="&lt;p style=&quot;margin: 0px ; margin-top: 4px ; text-align: center ; text-decoration: underline&quot;&gt;&lt;b&gt;users&lt;/b&gt;&lt;/p&gt;&lt;hr&gt;&lt;p style=&quot;margin: 0px ; margin-left: 8px&quot;&gt;ID&lt;/p&gt;&lt;p style=&quot;margin: 0px ; margin-left: 8px&quot;&gt;username&lt;/p&gt;&lt;p style=&quot;margin: 0px ; margin-left: 8px&quot;&gt;email&lt;/p&gt;&lt;p style=&quot;margin: 0px ; margin-left: 8px&quot;&gt;password&lt;/p&gt;&lt;p style=&quot;margin-left: 8px; border-color: var(--border-color);&quot;&gt;status&lt;/p&gt;&lt;p style=&quot;margin-left: 8px; border-color: var(--border-color);&quot;&gt;created_at&lt;/p&gt;&lt;p style=&quot;margin-left: 8px; border-color: var(--border-color);&quot;&gt;updated_at&lt;/p&gt;&lt;p style=&quot;margin-left: 8px; border-color: var(--border-color);&quot;&gt;deleted_at&lt;/p&gt;&lt;p style=&quot;margin-left: 8px; border-color: var(--border-color);&quot;&gt;created_by&lt;/p&gt;&lt;p style=&quot;margin-left: 8px; border-color: var(--border-color);&quot;&gt;updated_by&lt;/p&gt;&lt;p style=&quot;margin-left: 8px; border-color: var(--border-color);&quot;&gt;deleted_by&lt;/p&gt;" style="verticalAlign=top;align=left;overflow=fill;fontSize=12;fontFamily=Helvetica;html=1;rounded=0;shadow=0;comic=0;labelBackgroundColor=none;strokeWidth=1" parent="1" vertex="1">
          <mxGeometry x="190" y="375" width="140" height="190" as="geometry" />
        </mxCell>
        <mxCell id="24794b860abc3c2d-27" value="&lt;p style=&quot;margin: 0px ; margin-top: 4px ; text-align: center ; text-decoration: underline&quot;&gt;&lt;b&gt;property_types&lt;/b&gt;&lt;/p&gt;&lt;hr&gt;&lt;p style=&quot;margin: 0px ; margin-left: 8px&quot;&gt;ID&lt;/p&gt;&lt;p style=&quot;margin: 0px ; margin-left: 8px&quot;&gt;horizontal_property_type&lt;/p&gt;&lt;p style=&quot;margin: 0px ; margin-left: 8px&quot;&gt;name&lt;/p&gt;&lt;p style=&quot;margin: 0px ; margin-left: 8px&quot;&gt;description&lt;/p&gt;" style="verticalAlign=top;align=left;overflow=fill;fontSize=12;fontFamily=Helvetica;html=1;rounded=0;shadow=0;comic=0;labelBackgroundColor=none;strokeWidth=1" parent="1" vertex="1">
          <mxGeometry x="780" y="437.5" width="150" height="105" as="geometry" />
        </mxCell>
        <mxCell id="FBYkTZbu3xAGnKnDzRI2-2" style="edgeStyle=orthogonalEdgeStyle;rounded=0;orthogonalLoop=1;jettySize=auto;html=1;exitX=1;exitY=0.5;exitDx=0;exitDy=0;endArrow=ERoneToMany;endFill=0;startArrow=ERone;startFill=0;" edge="1" parent="1" source="24794b860abc3c2d-29" target="24794b860abc3c2d-27">
          <mxGeometry relative="1" as="geometry" />
        </mxCell>
        <mxCell id="FBYkTZbu3xAGnKnDzRI2-18" style="edgeStyle=orthogonalEdgeStyle;rounded=0;orthogonalLoop=1;jettySize=auto;html=1;exitX=0.5;exitY=0;exitDx=0;exitDy=0;entryX=0.5;entryY=1;entryDx=0;entryDy=0;endArrow=ERone;endFill=0;startArrow=ERoneToMany;startFill=0;" edge="1" parent="1" source="24794b860abc3c2d-29" target="FBYkTZbu3xAGnKnDzRI2-12">
          <mxGeometry relative="1" as="geometry" />
        </mxCell>
        <mxCell id="FBYkTZbu3xAGnKnDzRI2-20" style="edgeStyle=orthogonalEdgeStyle;rounded=0;orthogonalLoop=1;jettySize=auto;html=1;exitX=0.5;exitY=1;exitDx=0;exitDy=0;entryX=0;entryY=0.5;entryDx=0;entryDy=0;startArrow=ERone;startFill=0;endArrow=ERoneToMany;endFill=0;" edge="1" parent="1" source="24794b860abc3c2d-29" target="FBYkTZbu3xAGnKnDzRI2-5">
          <mxGeometry relative="1" as="geometry" />
        </mxCell>
        <mxCell id="FBYkTZbu3xAGnKnDzRI2-23" style="edgeStyle=orthogonalEdgeStyle;rounded=0;orthogonalLoop=1;jettySize=auto;html=1;exitX=0.5;exitY=1;exitDx=0;exitDy=0;entryX=0.5;entryY=0;entryDx=0;entryDy=0;startArrow=ERone;startFill=0;endArrow=ERoneToMany;endFill=0;" edge="1" parent="1" source="24794b860abc3c2d-29" target="FBYkTZbu3xAGnKnDzRI2-21">
          <mxGeometry relative="1" as="geometry">
            <Array as="points">
              <mxPoint x="560" y="930" />
            </Array>
          </mxGeometry>
        </mxCell>
        <mxCell id="24794b860abc3c2d-29" value="&lt;p style=&quot;margin: 0px ; margin-top: 4px ; text-align: center ; text-decoration: underline&quot;&gt;&lt;b&gt;properties&lt;/b&gt;&lt;/p&gt;&lt;hr&gt;&lt;p style=&quot;margin: 0px ; margin-left: 8px&quot;&gt;ID&lt;/p&gt;&lt;p style=&quot;margin: 0px ; margin-left: 8px&quot;&gt;horizontal_property_id&lt;/p&gt;&lt;p style=&quot;margin: 0px ; margin-left: 8px&quot;&gt;type_id&lt;/p&gt;&lt;p style=&quot;margin: 0px ; margin-left: 8px&quot;&gt;owner_id&lt;/p&gt;&lt;p style=&quot;margin: 0px ; margin-left: 8px&quot;&gt;name&lt;/p&gt;&lt;p style=&quot;margin: 0px ; margin-left: 8px&quot;&gt;address&lt;/p&gt;&lt;p style=&quot;margin: 0px ; margin-left: 8px&quot;&gt;floor&lt;/p&gt;&lt;p style=&quot;margin: 0px ; margin-left: 8px&quot;&gt;number&lt;/p&gt;&lt;p style=&quot;margin: 0px ; margin-left: 8px&quot;&gt;status&lt;/p&gt;&lt;p style=&quot;margin: 0px ; margin-left: 8px&quot;&gt;created_at&lt;/p&gt;&lt;p style=&quot;margin: 0px ; margin-left: 8px&quot;&gt;updated_at&lt;/p&gt;&lt;p style=&quot;margin: 0px ; margin-left: 8px&quot;&gt;deleted_at&lt;/p&gt;&lt;p style=&quot;margin: 0px ; margin-left: 8px&quot;&gt;created_by&lt;/p&gt;&lt;p style=&quot;margin: 0px ; margin-left: 8px&quot;&gt;updated_by&lt;/p&gt;&lt;p style=&quot;margin: 0px ; margin-left: 8px&quot;&gt;deleted_by&lt;/p&gt;" style="verticalAlign=top;align=left;overflow=fill;fontSize=12;fontFamily=Helvetica;html=1;rounded=0;shadow=0;comic=0;labelBackgroundColor=none;strokeWidth=1" parent="1" vertex="1">
          <mxGeometry x="490" y="360" width="140" height="260" as="geometry" />
        </mxCell>
        <mxCell id="FBYkTZbu3xAGnKnDzRI2-5" value="&lt;p style=&quot;margin: 0px ; margin-top: 4px ; text-align: center ; text-decoration: underline&quot;&gt;&lt;b&gt;parkings&lt;/b&gt;&lt;/p&gt;&lt;hr&gt;&lt;p style=&quot;margin: 0px ; margin-left: 8px&quot;&gt;ID&lt;/p&gt;&lt;p style=&quot;margin: 0px ; margin-left: 8px&quot;&gt;floor_level&lt;/p&gt;&lt;p style=&quot;margin: 0px ; margin-left: 8px&quot;&gt;number&lt;/p&gt;&lt;p style=&quot;margin: 0px ; margin-left: 8px&quot;&gt;property_id&lt;/p&gt;&lt;p style=&quot;margin: 0px ; margin-left: 8px&quot;&gt;monthly_price&lt;/p&gt;" style="verticalAlign=top;align=left;overflow=fill;fontSize=12;fontFamily=Helvetica;html=1;rounded=0;shadow=0;comic=0;labelBackgroundColor=none;strokeWidth=1" vertex="1" parent="1">
          <mxGeometry x="690" y="660" width="140" height="140" as="geometry" />
        </mxCell>
        <mxCell id="FBYkTZbu3xAGnKnDzRI2-10" style="edgeStyle=orthogonalEdgeStyle;rounded=0;orthogonalLoop=1;jettySize=auto;html=1;exitX=0.5;exitY=0;exitDx=0;exitDy=0;entryX=0.5;entryY=1;entryDx=0;entryDy=0;endArrow=ERone;endFill=0;startArrow=ERoneToMany;startFill=0;" edge="1" parent="1" source="FBYkTZbu3xAGnKnDzRI2-6" target="FBYkTZbu3xAGnKnDzRI2-7">
          <mxGeometry relative="1" as="geometry" />
        </mxCell>
        <mxCell id="FBYkTZbu3xAGnKnDzRI2-11" style="edgeStyle=orthogonalEdgeStyle;rounded=0;orthogonalLoop=1;jettySize=auto;html=1;exitX=0;exitY=0.5;exitDx=0;exitDy=0;entryX=1;entryY=0.5;entryDx=0;entryDy=0;startArrow=ERone;startFill=0;endArrow=ERoneToMany;endFill=0;" edge="1" parent="1" source="FBYkTZbu3xAGnKnDzRI2-6" target="FBYkTZbu3xAGnKnDzRI2-9">
          <mxGeometry relative="1" as="geometry" />
        </mxCell>
        <mxCell id="FBYkTZbu3xAGnKnDzRI2-6" value="&lt;p style=&quot;margin: 0px ; margin-top: 4px ; text-align: center ; text-decoration: underline&quot;&gt;&lt;b&gt;requests&lt;/b&gt;&lt;/p&gt;&lt;hr&gt;&lt;p style=&quot;margin: 0px ; margin-left: 8px&quot;&gt;ID&lt;/p&gt;&lt;p style=&quot;margin: 0px ; margin-left: 8px&quot;&gt;request_type&lt;/p&gt;&lt;p style=&quot;margin: 0px ; margin-left: 8px&quot;&gt;title&lt;/p&gt;&lt;p style=&quot;margin: 0px ; margin-left: 8px&quot;&gt;description&lt;/p&gt;&lt;p style=&quot;margin-left: 8px; border-color: var(--border-color);&quot;&gt;created_at&lt;/p&gt;&lt;p style=&quot;margin-left: 8px; border-color: var(--border-color);&quot;&gt;updated_at&lt;/p&gt;&lt;p style=&quot;margin-left: 8px; border-color: var(--border-color);&quot;&gt;deleted_at&lt;/p&gt;&lt;p style=&quot;margin-left: 8px; border-color: var(--border-color);&quot;&gt;created_by&lt;/p&gt;&lt;p style=&quot;margin-left: 8px; border-color: var(--border-color);&quot;&gt;updated_by&lt;/p&gt;&lt;p style=&quot;margin-left: 8px; border-color: var(--border-color);&quot;&gt;deleted_by&lt;/p&gt;" style="verticalAlign=top;align=left;overflow=fill;fontSize=12;fontFamily=Helvetica;html=1;rounded=0;shadow=0;comic=0;labelBackgroundColor=none;strokeWidth=1" vertex="1" parent="1">
          <mxGeometry x="-150" y="375" width="140" height="185" as="geometry" />
        </mxCell>
        <mxCell id="FBYkTZbu3xAGnKnDzRI2-7" value="&lt;p style=&quot;margin: 0px ; margin-top: 4px ; text-align: center ; text-decoration: underline&quot;&gt;&lt;b&gt;request_types&lt;/b&gt;&lt;/p&gt;&lt;hr&gt;&lt;p style=&quot;margin: 0px ; margin-left: 8px&quot;&gt;ID&lt;/p&gt;&lt;p style=&quot;margin: 0px ; margin-left: 8px&quot;&gt;name&lt;/p&gt;&lt;p style=&quot;margin: 0px ; margin-left: 8px&quot;&gt;description&lt;/p&gt;" style="verticalAlign=top;align=left;overflow=fill;fontSize=12;fontFamily=Helvetica;html=1;rounded=0;shadow=0;comic=0;labelBackgroundColor=none;strokeWidth=1" vertex="1" parent="1">
          <mxGeometry x="-150" y="200" width="140" height="90" as="geometry" />
        </mxCell>
        <mxCell id="FBYkTZbu3xAGnKnDzRI2-8" style="edgeStyle=orthogonalEdgeStyle;rounded=0;orthogonalLoop=1;jettySize=auto;html=1;exitX=0;exitY=0.5;exitDx=0;exitDy=0;entryX=1.003;entryY=0.459;entryDx=0;entryDy=0;entryPerimeter=0;endArrow=ERoneToMany;endFill=0;startArrow=ERone;startFill=0;" edge="1" parent="1" source="24794b860abc3c2d-26" target="FBYkTZbu3xAGnKnDzRI2-6">
          <mxGeometry relative="1" as="geometry" />
        </mxCell>
        <mxCell id="FBYkTZbu3xAGnKnDzRI2-9" value="&lt;p style=&quot;margin: 0px ; margin-top: 4px ; text-align: center ; text-decoration: underline&quot;&gt;&lt;b&gt;requests_documents&lt;/b&gt;&lt;/p&gt;&lt;hr&gt;&lt;p style=&quot;margin: 0px ; margin-left: 8px&quot;&gt;ID&lt;/p&gt;&lt;p style=&quot;margin: 0px ; margin-left: 8px&quot;&gt;request_id&lt;/p&gt;&lt;p style=&quot;margin: 0px ; margin-left: 8px&quot;&gt;url&lt;/p&gt;&lt;p style=&quot;margin: 0px ; margin-left: 8px&quot;&gt;type&lt;/p&gt;&lt;p style=&quot;margin-left: 8px; border-color: var(--border-color);&quot;&gt;&lt;br&gt;&lt;/p&gt;" style="verticalAlign=top;align=left;overflow=fill;fontSize=12;fontFamily=Helvetica;html=1;rounded=0;shadow=0;comic=0;labelBackgroundColor=none;strokeWidth=1" vertex="1" parent="1">
          <mxGeometry x="-400" y="420" width="140" height="95" as="geometry" />
        </mxCell>
        <mxCell id="FBYkTZbu3xAGnKnDzRI2-17" style="edgeStyle=orthogonalEdgeStyle;rounded=0;orthogonalLoop=1;jettySize=auto;html=1;exitX=0;exitY=0.5;exitDx=0;exitDy=0;entryX=1;entryY=0.5;entryDx=0;entryDy=0;endArrow=ERoneToMany;endFill=0;startArrow=ERone;startFill=0;" edge="1" parent="1" source="FBYkTZbu3xAGnKnDzRI2-12" target="FBYkTZbu3xAGnKnDzRI2-15">
          <mxGeometry relative="1" as="geometry" />
        </mxCell>
        <mxCell id="FBYkTZbu3xAGnKnDzRI2-19" style="edgeStyle=orthogonalEdgeStyle;rounded=0;orthogonalLoop=1;jettySize=auto;html=1;exitX=1;exitY=0.5;exitDx=0;exitDy=0;entryX=0;entryY=0.5;entryDx=0;entryDy=0;endArrow=ERone;endFill=0;startArrow=ERoneToMany;startFill=0;" edge="1" parent="1" source="FBYkTZbu3xAGnKnDzRI2-12" target="FBYkTZbu3xAGnKnDzRI2-13">
          <mxGeometry relative="1" as="geometry" />
        </mxCell>
        <mxCell id="FBYkTZbu3xAGnKnDzRI2-33" style="edgeStyle=orthogonalEdgeStyle;rounded=0;orthogonalLoop=1;jettySize=auto;html=1;exitX=0.5;exitY=0;exitDx=0;exitDy=0;startArrow=ERone;startFill=0;endArrow=ERmany;endFill=0;" edge="1" parent="1" source="FBYkTZbu3xAGnKnDzRI2-12" target="FBYkTZbu3xAGnKnDzRI2-30">
          <mxGeometry relative="1" as="geometry" />
        </mxCell>
        <mxCell id="FBYkTZbu3xAGnKnDzRI2-12" value="&lt;p style=&quot;margin: 0px ; margin-top: 4px ; text-align: center ; text-decoration: underline&quot;&gt;&lt;b&gt;horizontal_properties&lt;/b&gt;&lt;/p&gt;&lt;hr&gt;&lt;p style=&quot;margin: 0px ; margin-left: 8px&quot;&gt;ID&lt;/p&gt;&lt;p style=&quot;margin: 0px ; margin-left: 8px&quot;&gt;type_id&lt;/p&gt;&lt;p style=&quot;margin: 0px ; margin-left: 8px&quot;&gt;owner_id&lt;/p&gt;&lt;p style=&quot;margin: 0px ; margin-left: 8px&quot;&gt;name&lt;/p&gt;&lt;p style=&quot;margin: 0px ; margin-left: 8px&quot;&gt;address&lt;/p&gt;&lt;p style=&quot;margin: 0px ; margin-left: 8px&quot;&gt;max_property_number&lt;/p&gt;&lt;p style=&quot;margin: 0px ; margin-left: 8px&quot;&gt;status&lt;/p&gt;&lt;p style=&quot;margin: 0px ; margin-left: 8px&quot;&gt;created_at&lt;/p&gt;&lt;p style=&quot;margin: 0px ; margin-left: 8px&quot;&gt;updated_at&lt;/p&gt;&lt;p style=&quot;margin: 0px ; margin-left: 8px&quot;&gt;deleted_at&lt;/p&gt;&lt;p style=&quot;margin: 0px ; margin-left: 8px&quot;&gt;created_by&lt;/p&gt;&lt;p style=&quot;margin: 0px ; margin-left: 8px&quot;&gt;updated_by&lt;/p&gt;&lt;p style=&quot;margin: 0px ; margin-left: 8px&quot;&gt;deleted_by&lt;/p&gt;" style="verticalAlign=top;align=left;overflow=fill;fontSize=12;fontFamily=Helvetica;html=1;rounded=0;shadow=0;comic=0;labelBackgroundColor=none;strokeWidth=1" vertex="1" parent="1">
          <mxGeometry x="490" y="90" width="140" height="220" as="geometry" />
        </mxCell>
        <mxCell id="FBYkTZbu3xAGnKnDzRI2-13" value="&lt;p style=&quot;margin: 0px ; margin-top: 4px ; text-align: center ; text-decoration: underline&quot;&gt;&lt;b&gt;horizontal_property types&lt;/b&gt;&lt;/p&gt;&lt;hr&gt;&lt;p style=&quot;margin-left: 8px; border-color: var(--border-color);&quot;&gt;ID&lt;/p&gt;&lt;p style=&quot;margin-left: 8px; border-color: var(--border-color);&quot;&gt;name&lt;/p&gt;&lt;p style=&quot;margin-left: 8px; border-color: var(--border-color);&quot;&gt;description&lt;/p&gt;" style="verticalAlign=top;align=left;overflow=fill;fontSize=12;fontFamily=Helvetica;html=1;rounded=0;shadow=0;comic=0;labelBackgroundColor=none;strokeWidth=1" vertex="1" parent="1">
          <mxGeometry x="720" y="160" width="200" height="80" as="geometry" />
        </mxCell>
        <mxCell id="FBYkTZbu3xAGnKnDzRI2-15" value="&lt;p style=&quot;margin: 0px ; margin-top: 4px ; text-align: center ; text-decoration: underline&quot;&gt;&lt;b&gt;user_horizonal_properties&lt;/b&gt;&lt;/p&gt;&lt;hr&gt;&lt;p style=&quot;margin: 0px ; margin-left: 8px&quot;&gt;ID&lt;/p&gt;&lt;p style=&quot;margin: 0px ; margin-left: 8px&quot;&gt;user_id&lt;/p&gt;&lt;p style=&quot;margin: 0px ; margin-left: 8px&quot;&gt;horizontal_property_id&lt;/p&gt;" style="verticalAlign=top;align=left;overflow=fill;fontSize=12;fontFamily=Helvetica;html=1;rounded=0;shadow=0;comic=0;labelBackgroundColor=none;strokeWidth=1" vertex="1" parent="1">
          <mxGeometry x="170" y="155" width="180" height="90" as="geometry" />
        </mxCell>
        <mxCell id="FBYkTZbu3xAGnKnDzRI2-24" style="edgeStyle=orthogonalEdgeStyle;rounded=0;orthogonalLoop=1;jettySize=auto;html=1;entryX=0;entryY=0.5;entryDx=0;entryDy=0;startArrow=ERoneToMany;startFill=0;endArrow=ERone;endFill=0;" edge="1" parent="1" source="FBYkTZbu3xAGnKnDzRI2-21" target="FBYkTZbu3xAGnKnDzRI2-22">
          <mxGeometry relative="1" as="geometry" />
        </mxCell>
        <mxCell id="FBYkTZbu3xAGnKnDzRI2-26" style="edgeStyle=orthogonalEdgeStyle;rounded=0;orthogonalLoop=1;jettySize=auto;html=1;exitX=0;exitY=0.5;exitDx=0;exitDy=0;entryX=1;entryY=0.5;entryDx=0;entryDy=0;startArrow=ERone;startFill=0;endArrow=ERoneToMany;endFill=0;" edge="1" parent="1" source="FBYkTZbu3xAGnKnDzRI2-21" target="FBYkTZbu3xAGnKnDzRI2-25">
          <mxGeometry relative="1" as="geometry" />
        </mxCell>
        <mxCell id="FBYkTZbu3xAGnKnDzRI2-21" value="&lt;p style=&quot;margin: 0px ; margin-top: 4px ; text-align: center ; text-decoration: underline&quot;&gt;&lt;b&gt;common_areas&lt;/b&gt;&lt;/p&gt;&lt;hr&gt;&lt;p style=&quot;margin: 0px ; margin-left: 8px&quot;&gt;ID&lt;/p&gt;&lt;p style=&quot;margin: 0px ; margin-left: 8px&quot;&gt;property_id&lt;/p&gt;&lt;p style=&quot;margin: 0px ; margin-left: 8px&quot;&gt;type&lt;/p&gt;&lt;p style=&quot;margin: 0px ; margin-left: 8px&quot;&gt;name&lt;/p&gt;&lt;p style=&quot;margin: 0px ; margin-left: 8px&quot;&gt;description&lt;/p&gt;&lt;p style=&quot;margin-left: 8px; border-color: var(--border-color);&quot;&gt;status&lt;/p&gt;&lt;p style=&quot;margin-left: 8px; border-color: var(--border-color);&quot;&gt;created_at&lt;/p&gt;&lt;p style=&quot;margin-left: 8px; border-color: var(--border-color);&quot;&gt;updated_at&lt;/p&gt;&lt;p style=&quot;margin-left: 8px; border-color: var(--border-color);&quot;&gt;deleted_at&lt;/p&gt;&lt;p style=&quot;margin-left: 8px; border-color: var(--border-color);&quot;&gt;created_by&lt;/p&gt;&lt;p style=&quot;margin-left: 8px; border-color: var(--border-color);&quot;&gt;updated_by&lt;/p&gt;&lt;p style=&quot;margin-left: 8px; border-color: var(--border-color);&quot;&gt;deleted_by&lt;/p&gt;" style="verticalAlign=top;align=left;overflow=fill;fontSize=12;fontFamily=Helvetica;html=1;rounded=0;shadow=0;comic=0;labelBackgroundColor=none;strokeWidth=1" vertex="1" parent="1">
          <mxGeometry x="490" y="940" width="140" height="210" as="geometry" />
        </mxCell>
        <mxCell id="FBYkTZbu3xAGnKnDzRI2-22" value="&lt;p style=&quot;margin: 0px ; margin-top: 4px ; text-align: center ; text-decoration: underline&quot;&gt;&lt;b&gt;common_area_types&lt;/b&gt;&lt;/p&gt;&lt;hr&gt;&lt;p style=&quot;margin: 0px ; margin-left: 8px&quot;&gt;ID&lt;/p&gt;&lt;p style=&quot;margin: 0px ; margin-left: 8px&quot;&gt;name&lt;/p&gt;&lt;p style=&quot;margin: 0px ; margin-left: 8px&quot;&gt;description&lt;/p&gt;" style="verticalAlign=top;align=left;overflow=fill;fontSize=12;fontFamily=Helvetica;html=1;rounded=0;shadow=0;comic=0;labelBackgroundColor=none;strokeWidth=1" vertex="1" parent="1">
          <mxGeometry x="690" y="950" width="140" height="90" as="geometry" />
        </mxCell>
        <mxCell id="FBYkTZbu3xAGnKnDzRI2-25" value="&lt;p style=&quot;margin: 0px ; margin-top: 4px ; text-align: center ; text-decoration: underline&quot;&gt;&lt;b&gt;reservations&lt;/b&gt;&lt;/p&gt;&lt;hr&gt;&lt;p style=&quot;margin: 0px ; margin-left: 8px&quot;&gt;ID&lt;/p&gt;&lt;p style=&quot;margin: 0px ; margin-left: 8px&quot;&gt;user_id&lt;/p&gt;&lt;p style=&quot;margin: 0px ; margin-left: 8px&quot;&gt;common_area_id&lt;/p&gt;&lt;p style=&quot;margin: 0px ; margin-left: 8px&quot;&gt;from&lt;/p&gt;&lt;p style=&quot;margin: 0px ; margin-left: 8px&quot;&gt;to&lt;/p&gt;&lt;p style=&quot;margin: 0px ; margin-left: 8px&quot;&gt;approved_by&lt;/p&gt;&lt;p style=&quot;margin: 0px ; margin-left: 8px&quot;&gt;approved_at&lt;/p&gt;&lt;p style=&quot;margin: 0px ; margin-left: 8px&quot;&gt;denied_by&lt;/p&gt;&lt;p style=&quot;margin: 0px ; margin-left: 8px&quot;&gt;denied_at&lt;/p&gt;&lt;p style=&quot;margin-left: 8px; border-color: var(--border-color);&quot;&gt;status&lt;/p&gt;&lt;p style=&quot;margin-left: 8px; border-color: var(--border-color);&quot;&gt;created_at&lt;/p&gt;&lt;p style=&quot;margin-left: 8px; border-color: var(--border-color);&quot;&gt;updated_at&lt;/p&gt;&lt;p style=&quot;margin-left: 8px; border-color: var(--border-color);&quot;&gt;deleted_at&lt;/p&gt;&lt;p style=&quot;margin-left: 8px; border-color: var(--border-color);&quot;&gt;created_by&lt;/p&gt;&lt;p style=&quot;margin-left: 8px; border-color: var(--border-color);&quot;&gt;updated_by&lt;/p&gt;&lt;p style=&quot;margin-left: 8px; border-color: var(--border-color);&quot;&gt;deleted_by&lt;/p&gt;" style="verticalAlign=top;align=left;overflow=fill;fontSize=12;fontFamily=Helvetica;html=1;rounded=0;shadow=0;comic=0;labelBackgroundColor=none;strokeWidth=1" vertex="1" parent="1">
          <mxGeometry x="190" y="900" width="140" height="270" as="geometry" />
        </mxCell>
        <mxCell id="FBYkTZbu3xAGnKnDzRI2-30" value="&lt;p style=&quot;margin: 0px ; margin-top: 4px ; text-align: center ; text-decoration: underline&quot;&gt;&lt;b&gt;releases&lt;/b&gt;&lt;/p&gt;&lt;hr&gt;&lt;p style=&quot;margin: 0px ; margin-left: 8px&quot;&gt;ID&lt;/p&gt;&lt;p style=&quot;margin: 0px ; margin-left: 8px&quot;&gt;horizontal_property_id&lt;/p&gt;&lt;p style=&quot;margin: 0px ; margin-left: 8px&quot;&gt;title&lt;/p&gt;&lt;p style=&quot;margin: 0px ; margin-left: 8px&quot;&gt;description&lt;/p&gt;&lt;p style=&quot;margin: 0px ; margin-left: 8px&quot;&gt;release_at&lt;/p&gt;&lt;p style=&quot;margin-left: 8px; border-color: var(--border-color);&quot;&gt;status&lt;/p&gt;&lt;p style=&quot;margin-left: 8px; border-color: var(--border-color);&quot;&gt;created_at&lt;/p&gt;&lt;p style=&quot;margin-left: 8px; border-color: var(--border-color);&quot;&gt;updated_at&lt;/p&gt;&lt;p style=&quot;margin-left: 8px; border-color: var(--border-color);&quot;&gt;deleted_at&lt;/p&gt;&lt;p style=&quot;margin-left: 8px; border-color: var(--border-color);&quot;&gt;created_by&lt;/p&gt;&lt;p style=&quot;margin-left: 8px; border-color: var(--border-color);&quot;&gt;updated_by&lt;/p&gt;&lt;p style=&quot;margin-left: 8px; border-color: var(--border-color);&quot;&gt;deleted_by&lt;/p&gt;" style="verticalAlign=top;align=left;overflow=fill;fontSize=12;fontFamily=Helvetica;html=1;rounded=0;shadow=0;comic=0;labelBackgroundColor=none;strokeWidth=1" vertex="1" parent="1">
          <mxGeometry x="470" y="-200" width="180" height="210" as="geometry" />
        </mxCell>
        <mxCell id="FBYkTZbu3xAGnKnDzRI2-34" style="edgeStyle=orthogonalEdgeStyle;rounded=0;orthogonalLoop=1;jettySize=auto;html=1;exitX=0;exitY=0.5;exitDx=0;exitDy=0;entryX=1;entryY=0.5;entryDx=0;entryDy=0;startArrow=ERoneToMany;startFill=0;endArrow=ERone;endFill=0;" edge="1" parent="1" source="FBYkTZbu3xAGnKnDzRI2-31" target="FBYkTZbu3xAGnKnDzRI2-30">
          <mxGeometry relative="1" as="geometry" />
        </mxCell>
        <mxCell id="FBYkTZbu3xAGnKnDzRI2-31" value="&lt;p style=&quot;margin: 0px ; margin-top: 4px ; text-align: center ; text-decoration: underline&quot;&gt;&lt;b&gt;release_attachments&lt;/b&gt;&lt;/p&gt;&lt;hr&gt;&lt;p style=&quot;margin: 0px ; margin-left: 8px&quot;&gt;ID&lt;/p&gt;&lt;p style=&quot;margin: 0px ; margin-left: 8px&quot;&gt;release_id&lt;/p&gt;&lt;p style=&quot;margin: 0px ; margin-left: 8px&quot;&gt;url&lt;/p&gt;&lt;p style=&quot;margin: 0px ; margin-left: 8px&quot;&gt;type&lt;/p&gt;" style="verticalAlign=top;align=left;overflow=fill;fontSize=12;fontFamily=Helvetica;html=1;rounded=0;shadow=0;comic=0;labelBackgroundColor=none;strokeWidth=1" vertex="1" parent="1">
          <mxGeometry x="730" y="-160" width="180" height="130" as="geometry" />
        </mxCell>
      </root>
    </mxGraphModel>
  </diagram>
</mxfile>
